<?xml version="1.0" encoding="UTF-8"?><svg id="Capa_1" xmlns="http://www.w3.org/2000/svg" viewBox="0 0 150 150"><defs><style>.cls-1{fill:#f07f17;}.cls-1,.cls-2,.cls-3,.cls-4{stroke-width:0px;}.cls-2{fill:#f39208;}.cls-3{fill:#fff;}.cls-4{fill:#eeeded;}</style></defs><path class="cls-4" d="m16.5523326,70.6721373v-37.7967143c0-3.5404516,2.8700922-6.4105639,6.4105639-6.4105639h8.0820198c3.5404516,0,6.4105438,2.8701123,6.4105438,6.4105639v38.996915c0,1.929828.3102992,3.643985.9383387,5.1064287l21.0651266-30.8266652v-13.2766785c0-1.1762729.3221729-2.2749459.8751196-3.2225509,1.0236404-1.8978775,3.0292431-3.188013,5.3368215-3.188013h7.2411573L90.2368726,1.1117027H16.2274521c-4.2324122,0-7.6634739,3.4310617-7.6634739,7.6634739v92.9782874c0,4.2324323,3.4310617,7.663494,7.6634739,7.663494l10.7351974-15.7098728c-6.9794357-4.8695575-10.4103169-12.764046-10.4103169-23.0349479Z"/><path class="cls-3" d="m48.7574034,82.57386c7.1009601,0,10.701522-4.6010367,10.701522-11.1015956v-25.3201629l-21.0651266,30.8266652c1.5200871,3.5396493,4.9138631,5.5950933,10.3636045,5.5950933Z"/><path class="cls-3" d="m90.2368726,1.1117027l-17.3248487,25.3531564h4.1168849c2.1574931,0,4.1523253,1.14701,5.2377007,3.0116333l21.6506656,37.1950295h.2000268v-34.1462309c0-3.3470837,2.7133481-6.0604318,6.0604318-6.0604318h8.0823407c3.3470637,0,6.0604118,2.7133481,6.0604118,6.0604318v59.3902581c0,3.3470837-2.7133481,6.0604318-6.0604118,6.0604318h-11.9923595c-2.1927731,0-4.2145216-1.1844761-5.2866393-3.0972759l-20.6186816-36.7864518v12.5798842c0,17.6027762-10.5018162,28.604208-31.9048802,28.604208-9.1667935,0-16.3088099-1.9509479-21.4948642-5.5692601l-10.7351974,15.7098728h117.5450757c4.2324323,0,7.663494-3.4310617,7.663494-7.663494v-49.4426122c0-28.2764995-22.9226497-51.1991492-51.1991492-51.1991492Z"/><path class="cls-2" d="m79.8133182,57.4700702v17.7768093c0,3.3470837-2.7133481,6.0604318-6.0604318,6.0604318h-8.0914064c-3.341889,0-6.0510252-2.7091361-6.0510252-6.0510252v-42.7309953c0-1.0395054.2624637-2.0174563.7235902-2.8724188-.5529467.947605-.8751196,2.046278-.8751196,3.2225509v38.5968414c0,6.5005589-3.6005619,11.1015956-10.701522,11.1015956-5.4497415,0-8.8435175-2.055444-10.3636045-5.5950933-.6280395-1.4624437-.9383387-3.1766007-.9383387-5.1064287v-38.996915c0-3.5404516-2.8700922-6.4105639-6.4105438-6.4105639h-8.0820198c-3.5404717,0-6.4105639,2.8701123-6.4105639,6.4105639v37.7967143c0,10.2709019,3.4308812,18.1653904,10.4103169,23.0349479,5.1860543,3.6183122,12.3280707,5.5692601,21.4948642,5.5692601,21.4030641,0,31.9048802-11.0014318,31.9048802-28.604208v-12.5798842l-.3487281-.6221829h-.2003477Z"/><path class="cls-1" d="m65.6708666,26.4648591c-2.3075784,0-4.3131811,1.2901355-5.3368215,3.188013-.4611266.8549625-.7235902,1.8329134-.7235902,2.8724188v42.7309953c0,3.341889,2.7091361,6.0510252,6.0510252,6.0510252h8.0914064c3.3470837,0,6.0604318-2.7133481,6.0604318-6.0604318v-17.7768093h.2003477l.3487281.6221829,20.6186816,36.7864518c1.0721178,1.9127998,3.0938663,3.0972759,5.2866393,3.0972759h11.9923595c3.3470637,0,6.0604118-2.7133481,6.0604118-6.0604318v-59.3902581c0-3.3470837-2.7133481-6.0604318-6.0604118-6.0604318h-8.0823407c-3.3470837,0-6.0604318,2.7133481-6.0604318,6.0604318v34.1462309h-.2000268l-21.6506656-37.1950295c-1.0853753-1.8646233-3.0802076-3.0116333-5.2377007-3.0116333h-11.3580422Z"/><polygon class="cls-3" points="31.7366269 145.3079619 30.0819058 141.4237222 28.7224366 141.4237222 31.0684938 146.8615782 32.3114245 146.8615782 34.6652299 141.4237222 33.41453 141.4237222 31.7366269 145.3079619"/><rect class="cls-3" x="35.1081809" y="142.6821705" width="1.2118747" height="4.1794077"/><path class="cls-3" d="m35.7141183,140.7479246c-.4504899,0-.7535109.2951471-.7535109.6757976,0,.3806296.303021.6759023.7535109.6759023.4505946,0,.7535319-.2952727.7535319-.6991891,0-.3728813-.3029373-.6525109-.7535319-.6525109Z"/><path class="cls-3" d="m40.6083373,143.2182685c-.3185386-.404042-.8000844-.5981891-1.382735-.5981891-1.1574482,0-2.0897143.8000844-2.0897143,2.0197493,0,1.219644.9322661,2.0197284,2.0897143,2.0197284.5437416,0,1.0021054-.1708603,1.3205393-.5204549v.1787342c0,.7535109-.3728813,1.1419098-1.2273085,1.1419098-.5360771,0-1.118623-.1864825-1.4759868-.4738813l-.4816506.8700494c.4894198.3806505,1.2584483.5749023,2.0507844.5749023,1.5070428,0,2.3460571-.7147066,2.3460571-2.2684276v-3.4802186h-1.1496999v.536098Zm-1.1419098,2.4469525c-.6369934,0-1.1031264-.4117065-1.1031264-1.0253922,0-.6137066.4661331-1.0253922,1.1031264-1.0253922.6369724,0,1.0953362.4116856,1.0953362,1.0253922,0,.6136857-.4583638,1.0253922-1.0953362,1.0253922Z"/><rect class="cls-3" x="42.8846389" y="142.6821705" width="1.2118957" height="4.1794077"/><path class="cls-3" d="m43.4905763,140.7479246c-.4504899,0-.7535109.2951471-.7535109.6757976,0,.3806296.303021.6759023.7535109.6759023.4506155,0,.7535319-.2952727.7535319-.6991891,0-.3728813-.3029163-.6525109-.7535319-.6525109Z"/><rect class="cls-3" x="45.2230315" y="141.0975191" width="1.2118957" height="5.7640591"/><path class="cls-3" d="m49.2472012,142.6200794c-.6680284,0-1.3439308.1786295-1.8021899.5049373l.4349724.8467627c.303021-.2408253.7612801-.3883988,1.2041264-.3883988.6525109,0,.9631964.3029163.9631964.8233712h-.9631964c-1.2740914,0-1.7945463.5127066-1.7945463,1.2507,0,.7224759.5826506,1.2662175,1.5614693,1.2662175.6137066,0,1.048679-.2019163,1.2739867-.5825459v.5204549h1.1341615v-2.3848614c0-1.2662175-.7379934-1.8566373-2.0119801-1.8566373Zm.8001054,2.9208338c-.1398253.3806505-.4893151.5671331-.8933362.5671331-.4272241,0-.6835669-.2020001-.6835669-.5049373,0-.2796296.1786295-.4893989.7457626-.4893989h.8311404v.4272031Z"/><path class="cls-3" d="m55.4465676,143.1250168c-.3029373-.3418253-.7380143-.5049373-1.2507-.5049373-1.1808397,0-2.0896934.8390144-2.0896934,2.1517844,0,1.3128957.9088537,2.1518054,2.0896934,2.1518054.5592591,0,1.0021054-.1786295,1.3050218-.5437416v.4816506h1.1575529v-5.7640591h-1.2118747v2.0274976Zm-1.0409307,2.8042953c-.6059374,0-1.0720495-.4349724-1.0720495-1.1574482,0-.7224549.4661121-1.1574273,1.0720495-1.1574273.5980844,0,1.0641965.4349724,1.0641965,1.1574273,0,.7224759-.4661121,1.1574482-1.0641965,1.1574482Z"/><path class="cls-3" d="m59.462968,142.6200794c-.6680284,0-1.3439517.1786295-1.8022108.5049373l.4349724.8467627c.303042-.2408253.7613011-.3883988,1.2041264-.3883988.6525109,0,.9631964.3029163.9631964.8233712h-.9631964c-1.2740705,0-1.7945463.5127066-1.7945463,1.2507,0,.7224759.5826716,1.2662175,1.5614902,1.2662175.6137066,0,1.048679-.2019163,1.2739867-.5825459v.5204549h1.1341615v-2.3848614c0-1.2662175-.7380143-1.8566373-2.0119801-1.8566373Zm.8000844,2.9208338c-.1398043.3806505-.4892942.5671331-.8933362.5671331-.4272031,0-.6835669-.2020001-.6835669-.5049373,0-.2796296.1786295-.4893989.7457626-.4893989h.8311404v.4272031Z"/><polygon class="cls-3" points="69.9348683 141.4237222 67.9306365 144.8029199 65.8953905 141.4237222 64.8543552 141.4237222 64.8543552 146.8615782 66.0351949 146.8615782 66.0351949 143.6687584 67.6277201 146.2866759 68.1947485 146.2866759 69.795043 143.5988981 69.8028123 146.8615782 70.9835472 146.8615782 70.9680088 141.4237222 69.9348683 141.4237222"/><rect class="cls-3" x="72.1878831" y="142.6821705" width="1.2118747" height="4.1794077"/><path class="cls-3" d="m72.7938205,140.7479246c-.4504899,0-.7535109.2951471-.7535109.6757976,0,.3806296.303021.6759023.7535109.6759023.4505946,0,.7535109-.2952727.7535109-.6991891,0-.3728813-.3029163-.6525109-.7535109-.6525109Z"/><path class="cls-3" d="m77.0665846,142.6200794c-.567154,0-1.0565529.1941471-1.382756.5515109v-.4894198h-1.1575529v4.1794077h1.2118747v-2.0664276c0-.7690284.4195595-1.1263922,1.0021054-1.1263922.536098,0,.8467836.3107903.8467836.9865879v2.2062319h1.2118747v-2.3926307c0-1.2740705-.7457626-1.8488681-1.7323296-1.8488681Z"/><path class="cls-3" d="m81.8597827,142.6200794c-1.2739658,0-2.2295186.9011054-2.2295186,2.1517844,0,1.2429517.9400144,2.1518054,2.3848614,2.1518054.7535319,0,1.3361825-.2329513,1.7245813-.6757976l-.6447417-.6991891c-.2873988.271986-.6059374.4040211-1.0487837.4040211-.6369934,0-1.0797349-.3185386-1.1962525-.8389934h3.1616591c.0077483-.101021.0232868-.2330561.0232868-.3263078,0-1.3439517-.9476789-2.1673229-2.1750921-2.1673229Zm-1.0253922,1.7866723c.0853778-.5359724.4816506-.8700494,1.0331614-.8700494.5437416,0,.9400144.3418253,1.0253922.8700494h-2.0585536Z"/><path class="cls-3" d="m87.8881842,143.1250168c-.3029373-.3418253-.7380143-.5049373-1.2507-.5049373-1.1808397,0-2.0897143.8390144-2.0897143,2.1517844,0,1.3128957.9088746,2.1518054,2.0897143,2.1518054.5592591,0,1.0021054-.1786295,1.3050218-.5437416v.4816506h1.1575529v-5.7640591h-1.2118747v2.0274976Zm-1.0409307,2.8042953c-.6059374,0-1.0720704-.4349724-1.0720704-1.1574482,0-.7224549.4661331-1.1574273,1.0720704-1.1574273.5980844,0,1.0641965.4349724,1.0641965,1.1574273,0,.7224759-.4661121,1.1574482-1.0641965,1.1574482Z"/><path class="cls-3" d="m93.2174803,144.748598c0,.7690284-.404042,1.1263922-.9633012,1.1263922-.5359933,0-.8467627-.3106856-.8467627-1.0098747v-2.1829451h-1.2118957v2.3615747c0,1.289609.7379934,1.8799241,1.7867771,1.8799241.5127066,0,.9788396-.1941471,1.2972735-.5592591v.4971681h1.149679v-4.1794077h-1.21177v2.0664276Z"/><path class="cls-3" d="m97.5679577,143.6144366c.3806296,0,.7146019.1786086.9399097.5747767l.9400144-.5049373c-.303021-.6835459-.9943571-1.0641965-1.8721549-1.0641965-1.3594692,0-2.3305396.8933362-2.3305396,2.1517844,0,1.2584692.9710704,2.1518054,2.3305396,2.1518054.8777977,0,1.5691338-.3883988,1.8721549-1.0564482l-.9400144-.5126856c-.2253078.4039164-.5592801.5747767-.9399097.5747767-.6137066,0-1.0953572-.4272031-1.0953572-1.1574482,0-.7302242.4816506-1.1574273,1.0953572-1.1574273Z"/><path class="cls-3" d="m101.8328479,142.6200794c-.6680494,0-1.3439517.1786295-1.8022108.5049373l.4349724.8467627c.303042-.2408253.7612801-.3883988,1.2041264-.3883988.6525109,0,.9631964.3029163.9631964.8233712h-.9631964c-1.2740914,0-1.7945463.5127066-1.7945463,1.2507,0,.7224759.5826716,1.2662175,1.5614902,1.2662175.6137066,0,1.048679-.2019163,1.2739867-.5825459v.5204549h1.1341615v-2.3848614c0-1.2662175-.7380143-1.8566373-2.0119801-1.8566373Zm.8000844,2.9208338c-.1398253.3806505-.4892942.5671331-.8933362.5671331-.4272031,0-.6835669-.2020001-.6835669-.5049373,0-.2796296.1786295-.4893989.7457626-.4893989h.8311404v.4272031Z"/><path class="cls-3" d="m106.9989273,143.6144366c.3806505,0,.7146229.1786086.9399097.5747767l.9400144-.5049373c-.303021-.6835459-.9943362-1.0641965-1.8721549-1.0641965-1.3594692,0-2.3305187.8933362-2.3305187,2.1517844,0,1.2584692.9710494,2.1518054,2.3305187,2.1518054.8778186,0,1.5691338-.3883988,1.8721549-1.0564482l-.9400144-.5126856c-.2252868.4039164-.5592591.5747767-.9399097.5747767-.6137066,0-1.0953362-.4272031-1.0953362-1.1574482,0-.7302242.4816296-1.1574273,1.0953362-1.1574273Z"/><path class="cls-3" d="m110.1839988,140.7479246c-.4505108,0-.7535319.2951471-.7535319.6757976,0,.3806296.303021.6759023.7535319.6759023.4505946,0,.7535109-.2952727.7535109-.6991891,0-.3728813-.3029163-.6525109-.7535109-.6525109Z"/><rect class="cls-3" x="109.5780405" y="142.6821705" width="1.2118957" height="4.1794077"/><polygon class="cls-3" points="115.5365817 141.0275542 114.2314343 141.0275542 113.1827762 142.1461981 114.1304342 142.1461981 115.5365817 141.0275542"/><path class="cls-3" d="m113.9051265,142.6200794c-1.3283085,0-2.299358.8933362-2.299358,2.1517844,0,1.2584692.9710494,2.1518054,2.299358,2.1518054,1.3284342,0,2.2917353-.8933362,2.2917353-2.1518054,0-1.2584483-.9633012-2.1517844-2.2917353-2.1517844Zm0,3.3092326c-.6058327,0-1.0719448-.4349724-1.0719448-1.1574482,0-.7224549.4661121-1.1574273,1.0719448-1.1574273.6059583,0,1.0643221.4349724,1.0643221,1.1574273,0,.7224759-.4583638,1.1574482-1.0643221,1.1574482Z"/><path class="cls-3" d="m119.5452128,142.6200794c-.5671331,0-1.056532.1941471-1.382735.5515109v-.4894198h-1.1574482v4.1794077h1.21177v-2.0664276c0-.7690284.4195595-1.1263922,1.0021054-1.1263922.536098,0,.8467836.3107903.8467836.9865879v2.2062319h1.2118747v-2.3926307c0-1.2740705-.7457626-1.8488681-1.7323505-1.8488681Z"/><path class="cls-3" d="m57.4820331,112.525705c-.5819544,0-.9735091.3808201-.9735091.8727032,0,.4919039.3915547.872724.9735091.872724s.9735091-.3808201.9735091-.9025816c0-.481626-.3915547-.8428455-.9735091-.8428455Z"/><polygon class="cls-3" points="64.3960117 112.8869245 62.7103414 112.8869245 61.3555346 114.3318026 62.5801346 114.3318026 64.3960117 112.8869245"/><path class="cls-3" d="m91.693053,112.525705c-.5819544,0-.9735091.3808201-.9735091.8727032,0,.4919039.3915547.872724.9735091.872724s.9735091-.3808201.9735091-.9025816c0-.481626-.3915547-.8428455-.9735091-.8428455Z"/><path class="cls-3" d="m116.5311149,112.525705c-.5819544,0-.9735091.3808201-.9735091.8727032,0,.4919039.3915547.872724.9735091.872724.5819752,0,.9735091-.3808201.9735091-.9025816,0-.481626-.391534-.8428455-.9735091-.8428455Z"/><path class="cls-3" d="m134.3945277,112.525705c-.5819544,0-.9730316.3808201-.9730316.8727032,0,.4919039.3910772.872724.9730316.872724.5819752,0,.9730523-.3808201.9730523-.9025816,0-.481626-.3910772-.8428455-.9730523-.8428455Z"/><path class="cls-3" d="m15.2025873,119.2880284l-1.043523-.963252c-.4718257.5520967-1.0640372.8330452-1.7659413.8330452-1.3146713,0-2.2475673-.9231165-2.2475673-2.2475881,0-1.3244508.9328961-2.2475673,2.2475673-2.2475673.7019041,0,1.2941156.2809485,1.7659413.8227882l1.043523-.963252c-.662703-.80271-1.6758908-1.2442006-2.8897354-1.2442006-2.1878313,0-3.8128519,1.5148712-3.8128519,3.6322318,0,2.1173813,1.6250206,3.6322318,3.8025741,3.6322318,1.2241224,0,2.2373103-.4414698,2.9000132-1.2544369Z"/><path class="cls-3" d="m21.5243337,117.7227438c0-1.6249999-1.2441798-2.7791291-2.9597285-2.7791291s-2.9700064,1.1541293-2.9700064,2.7791291c0,1.6259342,1.2544576,2.7796067,2.9700064,2.7796067s2.9597285-1.1536725,2.9597285-2.7796067Zm-4.344393,0c0-.9328961.6020325-1.4947931,1.3846644-1.4947931s1.3748641.561897,1.3748641,1.4947931c0,.9333736-.5922322,1.4952706-1.3748641,1.4952706s-1.3846644-.561897-1.3846644-1.4952706Z"/><path class="cls-3" d="m22.5692479,115.0238857v5.3981938h1.5652638v-2.548594c0-1.033702.5716973-1.5050709,1.4350778-1.5050709.1204065,0,.2202781.0102778.3509417.0200781v-1.4448781c-.8325677,0-1.4747357.2711482-1.8564902.7929097v-.7126387h-1.4947931Z"/><path class="cls-3" d="m26.8548391,115.0238857v7.3447345h1.5652846v-2.5187156c.4013343.4414905.9529742.6524459,1.6254567.6524459,1.5153488,0,2.6890579-1.0836585,2.6890579-2.7796067,0-1.6954706-1.1737091-2.7791291-2.6890579-2.7791291-.7224183,0-1.3043727.2310127-1.6954706.7023609v-.6220899h-1.4952706Zm2.9196138,1.2040651c.7830887,0,1.3748641.561897,1.3748641,1.4947931,0,.9333736-.5917754,1.4952706-1.3748641,1.4952706-.7821751,0-1.3744073-.561897-1.3744073-1.4952706,0-.9328961.5922322-1.4947931,1.3744073-1.4947931Z"/><path class="cls-3" d="m39.307953,117.7227438c0-1.6249999-1.2442006-2.7791291-2.9602061-2.7791291s-2.9700064,1.1541293-2.9700064,2.7791291c0,1.6259342,1.2540008,2.7796067,2.9700064,2.7796067s2.9602061-1.1536725,2.9602061-2.7796067Zm-4.3448705,0c0-.9328961.6020325-1.4947931,1.3846644-1.4947931s1.3743866.561897,1.3743866,1.4947931c0,.9333736-.5917547,1.4952706-1.3743866,1.4952706s-1.3846644-.561897-1.3846644-1.4952706Z"/><path class="cls-3" d="m40.3523896,115.0238857v5.3981938h1.5652846v-2.548594c0-1.033702.5721541-1.5050709,1.4345795-1.5050709.1204065,0,.2212124.0102778.3514192.0200781v-1.4448781c-.8330245,0-1.4751925.2711482-1.8560126.7929097v-.7126387h-1.4952706Z"/><path class="cls-3" d="m44.2557696,118.8670728c0,.9328961.7527742,1.6352777,2.0170322,1.6352777.7924322,0,1.3543292-.2608911,1.6455348-.7523175v.6720464h1.4649354v-3.0801558c0-1.6357345-.9534518-2.3983091-2.5989866-2.3983091-.8624461,0-1.7356061.2310127-2.3278383.6519683l.561897,1.0939156c.3915547-.3108062.9837662-.5016834,1.5554635-.5016834.8428455,0,1.2442006.3915547,1.2442006,1.0635804h-1.2442006c-1.6455348,0-2.3180381.6622254-2.3180381,1.6156772Zm3.5622386-.7028385v.5520967c-.1806201.4914263-.6323677.7322186-1.1541293.7322186-.5516192,0-.882981-.2603928-.882981-.6519476,0-.3612195.2310127-.6323677.963252-.6323677h1.0738583Z"/><path class="cls-3" d="m53.4579287,116.2279507c.4918831,0,.9230958.2310127,1.2143221.7424964l1.2143221-.6524251c-.3915547-.882981-1.2843361-1.3744073-2.4183872-1.3744073-1.7556842,0-3.0101211,1.1541293-3.0101211,2.7791291,0,1.6259342,1.2544369,2.7796067,3.0101211,2.7796067,1.1340511,0,2.0268325-.5017042,2.4183872-1.3646071l-1.2143221-.6622254c-.2912264.5217615-.722439.7424964-1.2143221.7424964-.792453,0-1.4145428-.5516192-1.4145428-1.4952706,0-.9426964.6220899-1.4947931,1.4145428-1.4947931Z"/><rect class="cls-3" x="56.7905457" y="115.0238857" width="1.5652638" height="5.3981938"/><path class="cls-3" d="m59.4100672,117.7227438c0,1.6259342,1.2544576,2.7796067,2.9699856,2.7796067,1.7155487,0,2.9597493-1.1536725,2.9597493-2.7796067,0-1.6249999-1.2442006-2.7791291-2.9597493-2.7791291-1.715528,0-2.9699856,1.1541293-2.9699856,2.7791291Zm2.9699856-1.4947931c.7826319,0,1.3748641.561897,1.3748641,1.4947931,0,.9333736-.5922322,1.4952706-1.3748641,1.4952706s-1.3846644-.561897-1.3846644-1.4952706c0-.9328961.6020325-1.4947931,1.3846644-1.4947931Z"/><path class="cls-3" d="m66.3847163,115.0238857v5.3981938h1.5652638v-2.6690005c0-.9935665.5418189-1.4546576,1.2941156-1.4546576.6925814,0,1.0939364.401355,1.0939364,1.2740582v2.8495999h1.5652638v-3.0904129c0-1.6455556-.963252-2.388052-2.2373103-2.388052-.7326961,0-1.3645863.2506133-1.7864762.7126387v-.6323677h-1.4947931Z"/><path class="cls-3" d="m76.2089652,113.3984082v3.9332584c0,2.0669472,1.1844437,3.2107986,3.180941,3.2107986,1.9964765,0,3.180941-1.1438514,3.180941-3.2107986v-3.9332584h-1.6053993v3.8730448c0,1.3342718-.5721749,1.8863686-1.5652846,1.8863686-.9837662,0-1.5652638-.5520967-1.5652638-1.8863686v-3.8730448h-1.6259342Z"/><path class="cls-3" d="m84.0670521,115.0238857v5.3981938h1.5652638v-2.6690005c0-.9935665.5418189-1.4546576,1.2945931-1.4546576.6921038,0,1.0934588.401355,1.0934588,1.2740582v2.8495999h1.5652638v-3.0904129c0-1.6455556-.963252-2.388052-2.237767-2.388052-.7322393,0-1.3645863.2506133-1.7855419.7126387v-.6323677h-1.4952706Z"/><rect class="cls-3" x="91.0015657" y="115.0238857" width="1.5652638" height="5.3981938"/><polygon class="cls-3" points="96.3302024 118.6962529 94.8354093 115.0238857 93.2197322 115.0238857 95.4873776 120.4220795 97.1025772 120.4220795 99.3804798 115.0238857 97.8754088 115.0238857 96.3302024 118.6962529"/><path class="cls-3" d="m105.1613416,117.7432787c0-1.7360837-1.2245792-2.7996641-2.8094644-2.7996641-1.6455348,0-2.8799351,1.1639296-2.8799351,2.7791291,0,1.6053993,1.2138653,2.7796067,3.0806126,2.7796067.9730523,0,1.7258058-.3010266,2.2270324-.872724l-.8325677-.9034952c-.3714766.3514192-.7826319.5217615-1.3543292.5217615-.823245,0-1.3949215-.4111553-1.5456632-1.0836585h4.0839794c.0098003-.1302068.0303352-.3005491.0303352-.4209556Zm-4.1339152-.4918831c.1101287-.6925606.6216331-1.123794,1.3342511-1.123794.7023609,0,1.2138653.4414905,1.3244716,1.123794h-2.6587226Z"/><path class="cls-3" d="m106.205799,115.0238857v5.3981938h1.5652638v-2.548594c0-1.033702.5721541-1.5050709,1.4346002-1.5050709.1204065,0,.2212124.0102778.3514192.0200781v-1.4448781c-.8330452,0-1.4752133.2711482-1.8560334.7929097v-.7126387h-1.4952499Z"/><path class="cls-3" d="m112.3875384,119.3183428c-.662703,0-1.3949215-.210457-1.8765475-.5217408l-.5217615,1.1237733c.5016834.3308843,1.4247999.5819752,2.3376386.5819752,1.6156772,0,2.5490508-.712182,2.5490508-1.7155487,0-2.1271608-3.261212-1.2344003-3.261212-2.157496,0-.2809485.3010059-.5017042,1.0033668-.5017042.4919039,0,1.0234657.1003491,1.5550067.401355l.5217615-1.1135162c-.5114837-.3014834-1.3342511-.4718257-2.0767682-.4718257-1.5755209,0-2.4986374.722439-2.4986374,1.7458839,0,2.1570393,3.261212,1.2544576,3.261212,2.1374387,0,.3005491-.2706707.4914055-.9931097.4914055Z"/><rect class="cls-3" x="115.8396275" y="115.0238857" width="1.5652638" height="5.3981938"/><path class="cls-3" d="m122.3419941,120.1611884l-.4209556-1.1037159c-.1707991.1306843-.401355.2006775-.6323677.2006775-.4214124,0-.6724825-.2510701-.6724825-.7121612v-2.1976315h1.3449857v-1.2040651h-1.3449857v-1.3146505h-1.5652846v1.3146505h-.8325677v1.2040651h.8325677v2.2172321c0,1.2843153.742974,1.9367612,2.0170322,1.9367612.481626,0,.9529742-.1101494,1.2740582-.3411621Z"/><path class="cls-3" d="m122.874947,118.8670728c0,.9328961.7522967,1.6352777,2.0165546,1.6352777.7929097,0,1.3548068-.2608911,1.6455556-.7523175v.6720464h1.4649354v-3.0801558c0-1.6357345-.952995-2.3983091-2.5985298-2.3983091-.8633597,0-1.7360837.2310127-2.3278383.6519683l.561897,1.0939156c.3910772-.3108062.9828319-.5016834,1.5550067-.5016834.8428248,0,1.2441798.3915547,1.2441798,1.0635804h-1.2441798c-1.6455556,0-2.3175813.6622254-2.3175813,1.6156772Zm3.561761-.7028385v.5520967c-.1805994.4914263-.6318902.7322186-1.1536517.7322186-.5520967,0-.8829603-.2603928-.8829603-.6519476,0-.3612195.2305352-.6323677.9632313-.6323677h1.0733807Z"/><path class="cls-3" d="m130.9131765,115.7365244v-.7126387h-1.4952706v5.3981938h1.5652846v-2.548594c0-1.033702.5721541-1.5050709,1.4346002-1.5050709.1204065,0,.2212124.0102778.3514192.0200781v-1.4448781c-.8330452,0-1.4752133.2711482-1.8560334.7929097Z"/><rect class="cls-3" x="133.7030403" y="115.0238857" width="1.5652846" height="5.3981938"/><path class="cls-3" d="m136.3724976,118.8670728c0,.9328961.7527742,1.6352777,2.0170322,1.6352777.7924322,0,1.3543292-.2608911,1.6455348-.7523175v.6720464h1.4649354v-3.0801558c0-1.6357345-.9534518-2.3983091-2.5989866-2.3983091-.8624461,0-1.7356061.2310127-2.3278383.6519683l.561897,1.0939156c.3915547-.3108062.9837662-.5016834,1.5554635-.5016834.8428455,0,1.2442006.3915547,1.2442006,1.0635804h-1.2442006c-1.6455348,0-2.3180381.6622254-2.3180381,1.6156772Zm3.5622386-.7028385v.5520967c-.1806201.4914263-.6323677.7322186-1.1541293.7322186-.5516192,0-.882981-.2603928-.882981-.6519476,0-.3612195.2310127-.6323677.963252-.6323677h1.0738583Z"/><path class="cls-3" d="m20.3497916,129.100051c0-3.0643814-2.2835061-4.9583875-5.9344192-4.9583875h-5.9153724v13.6648183h3.1633245v-3.806163h2.9082147l2.6358085,3.806163h3.3957825l-3.0643814-4.3927155c1.7768915-.76087,2.8110429-2.2644593,2.8110429-4.3137153Zm-6.1096744,2.3815739h-2.5767928v-4.7631687h2.5767928c1.9321413,0,2.9082147.8789015,2.9082147,2.3815948,0,1.4836048-.9760733,2.3815739-2.9082147,2.3815739Z"/><path class="cls-3" d="m28.9799729,136.4990282v1.3074536h2.850095v-5.9925389c0-3.1824129-1.8549749-4.6660177-5.0564346-4.6660177-1.6779276,0-3.3767149.4494326-4.5289186,1.2684223l1.093188,2.1282562c.7617869-.6047033,1.9139698-.9760525,3.0262254-.9760525,1.6397924,0,2.420626.7617869,2.420626,2.0692405h-2.420626c-3.2014597,0-4.5098302,1.2884068-4.5098302,3.1433608,0,1.8150267,1.4645372,3.181496,3.9241945,3.181496,1.5417245,0,2.6349125-.5075523,3.2014805-1.4636203Zm-4.1584654-1.8549749c0-.7027503.4494326-1.2302871,1.8740425-1.2302871h2.0892041v1.0741204c-.3513647.9560888-1.2302871,1.424589-2.2453917,1.424589-1.0732035,0-1.7178549-.5066354-1.7178549-1.2684223Z"/><path class="cls-3" d="m34.9561741,137.8064817h3.045293v-7.9255971h2.6149488v-2.3425427h-2.6930322v-.4494326c0-1.0341722.4875886-1.52174,1.3855578-1.52174.4685002,0,.8979691.1361822,1.2293702.3704532l.800839-2.2063604c-.5665681-.3904168-1.4636411-.5656512-2.322579-.5656512-2.6167409,0-4.0603976,1.5426206-4.0603976,3.9042308v.4685002h-1.6207039v2.3425427h1.6207039v7.9255971Z"/><path class="cls-3" d="m51.2377333,137.8064817v-5.9925389c0-3.1824129-1.854058-4.6660177-5.0555177-4.6660177-1.6797405,0-3.3776318.4494326-4.5289186,1.2684223l1.093188,2.1282562c.76087-.6047033,1.9121568-.9760525,3.0253293-.9760525,1.6397715,0,2.420626.7617869,2.420626,2.0692405h-2.420626c-3.2014805,0-4.5089341,1.2884068-4.5089341,3.1433608,0,1.8150267,1.4636203,3.181496,3.9232984,3.181496,1.5426206,0,2.6358085-.5075523,3.2014597-1.4636203v1.3074536h2.850095Zm-3.045293-3.3185952c-.3513856.9560888-1.229391,1.424589-2.2444956,1.424589-1.0740995,0-1.7178549-.5066354-1.7178549-1.2684223,0-.7027503.4485365-1.2302871,1.8740425-1.2302871h2.0883081v1.0741204Z"/><path class="cls-3" d="m63.6550099,136.2647572l-1.6198079-1.7578031c-.7227348.6837035-1.5226361,1.0151046-2.6348916,1.0151046-1.6016572,0-2.7138919-.7999221-3.0071786-2.1082926h7.9455816c.0190676-.2533177.0590158-.5847188.0590158-.8189897,0-3.3776109-2.3824908-5.4468514-5.4659398-5.4468514-3.2014597,0-5.6030181,2.2644593-5.6030181,5.4069032,0,3.1233972,2.3616103,5.4078201,5.9934558,5.4078201,1.8930892,0,3.3576264-.5856357,4.3327829-1.6978912Zm-4.7041529-6.8133416c1.3664902,0,2.3616103.8589379,2.5767928,2.1863759h-5.1726531c.2142864-1.3474017,1.2094065-2.1863759,2.5958604-2.1863759Z"/><rect class="cls-3" x="66.4297514" y="123.3217777" width="3.045293" height="14.4847041"/><polygon class="cls-3" points="78.0462099 124.1416634 78.0462099 137.8064817 81.1695862 137.8064817 81.1695862 129.5095354 87.9829278 137.8064817 90.579705 137.8064817 90.579705 124.1416634 87.4563079 124.1416634 87.4563079 132.4386098 80.6629508 124.1416634 78.0462099 124.1416634"/><polygon class="cls-3" points="99.4641001 125.9575862 102.9969816 123.1465433 99.7174177 123.1465433 97.0825261 125.9575862 99.4641001 125.9575862"/><path class="cls-3" d="m104.1882167,137.8064817v-10.5023899h-3.045293v5.1926376c0,1.9321413-1.0151046,2.8310274-2.420626,2.8310274-1.3474226,0-2.1282562-.7808545-2.1282562-2.5386576v-5.4850074h-3.0453138v5.93444c0,3.2405118,1.8549749,4.7241166,4.4907834,4.7241166,1.2874899,0,2.4587612-.4884847,3.2595794-1.4055214v1.2493547h2.8891262Z"/><path class="cls-3" d="m110.202553,125.8795028c.039969-.7027711.4104013-1.093188.9370212-1.093188.7027711,0,1.3864538,1.229391,2.7329595,1.229391,1.3674071,0,2.2453917-1.1131725,2.2844438-2.7910792h-1.5417245c-.0399482.6437345-.4104013,1.0532398-.9370212,1.0532398-.7027503,0-1.3864538-1.2493547-2.7329595-1.2493547-1.3673862,0-2.2453917,1.1131516-2.284423,2.850991h1.5417037Z"/><path class="cls-3" d="m113.4040336,127.1479251c-1.424589,0-2.6548761.4875678-3.4738658,1.3864538v-1.2302871h-2.9091107v10.5023899h3.0453138v-5.1926376c0-1.9330374,1.0541359-2.8301105,2.5186731-2.8301105,1.3465265,0,2.1273602.7808545,2.1273602,2.4787457v5.5440024h3.0453138v-6.0125234c0-3.2014597-1.8740425-4.6460332-4.3536843-4.6460332Z"/><path class="cls-3" d="m125.450857,127.1479251c-3.2014597,0-5.6021221,2.2644593-5.6021221,5.4069032,0,3.1233972,2.3625272,5.4078201,5.9925597,5.4078201,1.8940061,0,3.3576473-.5856357,4.3345958-1.6978912l-1.6207039-1.7578031c-.7218387.6837035-1.5226569,1.0151046-2.6358085,1.0151046-1.5998234,0-2.7129958-.7999221-3.0053448-2.1082926h7.9446439c.0199845-.2533177.0581197-.5847188.0581197-.8189897,0-3.3776109-2.3806779-5.4468514-5.4659398-5.4468514Zm-2.5767928,4.4898665c.2152033-1.3474017,1.2112195-2.1863759,2.5967773-2.1863759,1.3664902,0,2.3625063.8589379,2.5767928,2.1863759h-5.17357Z"/><polygon class="cls-3" points="141.3247657 129.1390822 141.3247657 127.3040918 132.2669285 127.3040918 132.2669285 129.6466345 137.4795298 129.6466345 132.1298293 135.9714914 132.1298293 137.8064817 141.5 137.8064817 141.5 135.4639391 135.9759613 135.4639391 141.3247657 129.1390822"/></svg>