<?xml version="1.0" encoding="UTF-8"?><svg id="Capa_1" xmlns="http://www.w3.org/2000/svg" viewBox="0 0 264 81"><defs><style>.cls-1{fill:#f07f17;}.cls-1,.cls-2,.cls-3,.cls-4,.cls-5{stroke-width:0px;}.cls-2{fill:#0faba0;}.cls-3{fill:#f39208;}.cls-4{fill:#fff;}.cls-5{fill:#eeeded;}</style></defs><path class="cls-3" d="m8.4032194,48.0955777v-25.6125565c0-2.3991535,1.944883-4.344046,4.3440556-4.344046h5.4766767c2.3991725,0,4.3440556,1.9448925,4.3440556,4.344046v26.4258558c0,1.3077337.2102607,2.469307.6358454,3.4603172l14.2745817-20.8893806v-8.9967924c0-.8417091.2401076-1.6269888.6544998-2.2925004.7104627-1.2261496,2.0359084-2.0515457,3.5549402-2.0515457h4.9068827L58.3347893.9586708H8.1830605C5.3150176.9586708,2.9900055,3.2836925,2.9900055,6.1517449v63.0057754c0,2.8680524,2.3250122,5.1930836,5.193055,5.1930836l7.2718303-10.6415885c-4.7302759-3.2997379-7.0516714-8.6529344-7.0516714-15.6134377Z"/><path class="cls-1" d="m30.226629,56.160654c4.811898,0,7.2518055-3.1178393,7.2518055-7.5228735v-17.1579668l-14.2745817,20.8893806c1.0300986,2.3986015,3.3298322,3.7914597,7.0227763,3.7914597Z"/><path class="cls-1" d="m58.3347893.9586708l-11.7400322,17.1803044h2.7897709c1.462041,0,2.8137931.7772565,3.5492678,2.0408004l14.6713475,25.2048171h.1355673v-23.1388333c0-2.2681165,1.8386677-4.1067842,4.1068032-4.1067842h5.4769051c2.2680975,0,4.1067651,1.8386677,4.1067651,4.1067842v40.2451963c0,2.2681165-1.8386677,4.1067842-4.1067651,4.1067842h-8.1265022c-1.4859109,0-2.8559366-.8026492-3.5824268-2.0988382l-13.9720393-24.9279719v8.524648c0,11.928336-7.1164666,19.3833402-21.6200395,19.3833402-6.2111235,0-11.054315-1.3184885-14.5685203-3.7699026l-7.2718303,10.6415885h79.6532138c2.868081,0,5.1930931-2.3250312,5.1930931-5.1930836v-33.5042809C93.0293674,16.4919615,77.4960767.9586708,58.3347893.9586708Z"/><path class="cls-5" d="m51.2713543,39.1493233v12.0462865c0,2.268107-1.8386677,4.1067842-4.1067651,4.1067842h-5.4830724c-2.264595,0-4.1004074-1.8358219-4.1004074-4.1004265v-28.9562081c0-.7490466.2015046-1.45062.5518249-2.0552385-.4143921.6655115-.6544998,1.4507913-.6544998,2.2925004v26.1547592c0,4.4050342-2.4399075,7.5228735-7.2518055,7.5228735-3.692944,0-5.9926777-1.3928582-7.0227763-3.7914597-.4255847-.9910102-.6358454-2.1525835-.6358454-3.4603172v-26.4258558c0-2.3991535-1.944883-4.344046-4.3440556-4.344046h-5.4766767c-2.3991725,0-4.3440556,1.9448925-4.3440556,4.344046v25.6125565c0,6.9605032,2.3213955,12.3136998,7.0516714,15.6134377,3.5142053,2.4514141,8.3573969,3.7699026,14.5685203,3.7699026,14.5035729,0,21.6200395-7.4550042,21.6200395-19.3833402v-8.524648l-.2363387-.4216064h-.1357577Z"/><path class="cls-4" d="m41.6878744,18.1389752c-1.5190318,0-2.8444775.8253961-3.5549402,2.0515457-.3503203.6046185-.5518249,1.3061918-.5518249,2.0552385v28.9562081c0,2.2646045,1.8358124,4.1004265,4.1004074,4.1004265h5.4830724c2.2680975,0,4.1067651-1.8386772,4.1067651-4.1067842v-12.0462865h.1357577l.2363387.4216064,13.9720393,24.9279719c.7264902,1.2961889,2.0965159,2.0988382,3.5824268,2.0988382h8.1265022c2.2680975,0,4.1067651-1.8386677,4.1067651-4.1067842V22.2457594c0-2.2681165-1.8386677-4.1067842-4.1067651-4.1067842h-5.4769051c-2.2681355,0-4.1068032,1.8386677-4.1068032,4.1067842v23.1388333h-.1355673l-14.6713475-25.2048171c-.7354747-1.2635439-2.0872268-2.0408004-3.5492678-2.0408004h-7.6966536Z"/><path class="cls-1" d="m235.4599079,64.9086397h.0938616c-.5177142,0-1.0066094-.1586092-1.3969793-.4339982.3641207.2713916.8140893.4339982,1.3031177.4339982Z"/><path class="cls-1" d="m234.09032,64.4249316c-.0102408-.0078234-.0200439-.0161131-.0301515-.0240983.0098982.0082517.020139.016018.0301515.0240983Z"/><path class="cls-1" d="m127.2445541,63.5302139l-9.3313522-16.6483733h-.0891425v.0083434l9.3266472,16.64003c.4771411.851276,1.3769091,1.3784147,2.3527712,1.3784147h.0938474c-.9758621,0-1.8756301-.5271387-2.3527712-1.3784147Z"/><path class="cls-1" d="m128.6402829,50.9768105v-15.1964366c0-1.4896388,1.2075949-2.697171,2.697171-2.697171h-.0938474c-1.4895761,0-2.697171,1.2075321-2.697171,2.697171v15.1931745l.0048931.0032621h.0889543Z"/><path class="cls-1" d="m108.8329041,62.2114576v-24.6326769l19.5630996,13.292577-9.5740003-16.4478812c-.4830379-.8298216-1.3708241-1.3402735-2.3310031-1.3402735h-5.0547726c-1.4896388,0-2.697171,1.2075321-2.697171,2.697171v26.4310837c0,1.4896388,1.2075321,2.697171,2.697171,2.697171h.0938474c-1.4895761,0-2.697171-1.2075321-2.697171-2.697171Z"/><path class="cls-1" d="m153.5629708,31.7034082h.0938474c-.3671088.002572-.6716737-.1152391-.8943103-.3046276.2102156.1875065.4877429.3046276.8004629.3046276Z"/><path class="cls-1" d="m161.6852852,27.6866026c.6719873-.7820823.1163682-1.9921238-.914761-1.9921238h-4.6534747l3.0674164,4.9022706,2.5008192-2.9101468Z"/><path class="cls-1" d="m160.3304579,53.1133438v-18.8241143c0-.6660278.5399361-1.2060266,1.2060266-1.2060266h-.0938474c-.6660278,0-1.2060266.5399988-1.2060266,1.2060266v18.8241143c0,2.8930209-1.6024313,4.9407254-4.7626287,4.9407254-3.4274365,0-5.0298051-1.8250679-5.0298051-4.7626287v-19.002211c0-.6660278-.5399988-1.2060266-1.2060893-1.2060266h-6.8907559c-.6661532,0-1.2060893.5399988-1.2060893,1.2060266v18.4680463c0,7.9674286,4.6291346,12.7300573,14.1993082,12.7300573.0317425,0,.0621676-.0014428.0938474-.0015056l.1334314-7.4317584c3.1602601,0,4.7626287-2.0477045,4.7626287-4.9407254Z"/><path class="cls-1" d="m153.2802995,27.4108946l-.8664572,2.7204446.7468896-2.3340143c.0442262-.1371953.0833084-.2652317.1195676-.3864304Z"/><path class="cls-1" d="m154.7085862,25.6944788c-.2308545,0-.4480961.0687545-.6347871.1848718.1942816-.1016262.4549339-.1596535.8231719-.1848718h-.1883848Z"/><path class="cls-1" d="m179.7401773,31.29797c-.0095353.268682.2028132.4943297.4718089.4943297h.0972976c-.3404477-.0641123-.5128985-.2076436-.5691065-.4943297Z"/><path class="cls-1" d="m185.6112839,29.9230056c-.01148,0-.0223954.0012546-.0337499.0015056.7611925.0156203,1.1759778.3260192,2.4771064.933267.889919.4004196,1.8692941.7121987,3.0710549.7121987.0180669,0,.035381-.0011292.0533851-.0013174-1.1828784-.007026-2.150899-.3151038-3.0305926-.7108813-1.3355058-.6233071-1.7361764-.9347725-2.5372039-.9347725Z"/><path class="cls-1" d="m191.7358915,25.4923557c.0522559-.2713795.2938376-.4657239.570173-.4657239h-.0938474c-.2763981,0-.5179171.1943444-.570173.4657239-.1454132.7559858-.503175,1.2258499-1.3619788,1.2258499-.7121987,0-1.1128692-.2672392-2.2254248-.8456928-.8904836-.4452104-1.958813-.845881-3.160511-.845881-2.1631945,0-4.0175583,1.2587843-4.7851496,3.8715805l10.2649328-2.1800067c.8588038,0,1.2165656-.4698642,1.3619788-1.2258499Z"/><path class="cls-1" d="m192.286492,64.6676742l-9.9449985-17.7426739-.1130434-.0431598h.0888915l.0241519.0431598,10.4932153,4.0057647-10.2522609-17.6132573c-.0844375-.1450368-.239637-.2343048-.4075084-.2343048h-8.5602479c-.2604014,0-.4714952.2110939-.4714952.4714952v30.8824352c0,.2604014.2110939.4714952.4714952.4714952h8.0483532c.2604014,0,.4714952-.2110939.4714952-.4714952v-17.5552928h.0888915l9.9692132,17.7858336c.0833711.1488008.2407035.2409544.4112723.2409544h.0938474c-.1705689,0-.3278385-.0921536-.4112723-.2409544Z"/><path class="cls-1" d="m193.0445479,50.9768105v-17.4221123c0-.2604014.2110939-.4714952.4714952-.4714952h-.0937846c-.2604641,0-.471558.2110939-.471558.4714952v17.4203558l.0047049.0017565h.0891425Z"/><path class="cls-1" d="m215.0708901,42.8536805v-1.8431975c0-.1989238.1612845-.3602083.360271-.3602083h14.7693557c.1989238,0,.360271-.1613472.360271-.3603338v-6.8464669c0-.1989865-.1613472-.360271-.360271-.360271h-24.0722902c-.1989238,0-.360271.1612845-.360271.360271v31.1048836c0,.1989865.1613472.360271.360271.360271h1.8923168l7.0480255-22.098296.0023211.043348Z"/><path class="cls-1" d="m248.8583908,56.9411999h-.0938474c-1.6948359,0-3.2553621.1332432-3.6451173.169126v.008908s1.7804653-.178034,3.7389646-.178034Z"/><path class="cls-1" d="m233.2746456,61.4616196v1.2617328c0,.1583361.0177532.3124064.0497466.4611444-.0190706-.110095-.0318052-.222762-.0318052-.3399458l-.0179414-1.3829314Z"/><path class="cls-1" d="m247.7901241,41.0063426v-.1337451l.5740624,12.6722183,11.1705976-12.8567764c.3454662-.397534.535733-.906543.535733-1.4332426v-3.9863177c0-1.2069048-.9784341-2.1852762-2.185339-2.1852762h-21.2678472c-1.2069048,0-2.1852762.9783714-2.1852762,2.1852762v3.5968762c0,1.2069048.9783714,2.1852762,2.1852762,2.1852762h8.0521798c1.4243346,0,3.026766-.178034,3.026766-.178034v.1337451s-1.4689999,1.3351922-2.5372666,2.5814928l-11.3480042,13.0481096,11.4419143-13.0481096c1.0682666-1.2463006,2.5372039-2.5814928,2.5372039-2.5814928Z"/><path class="cls-1" d="m102.0587046,33.0832029h-.120634c.2993581.0166868.5815902.0465473.8435599.096043-.2312936-.0605366-.4726871-.096043-.7229259-.096043Z"/><path class="cls-1" d="m98.4618912,33.0832029c-1.5757074,0-2.8529978,1.2772903-2.8529978,2.8529978v26.1194301c0,1.5757074,1.2772903,2.8529978,2.8529978,2.8529978h2.0142682v-31.8254256h-2.0142682Z"/><path class="cls-3" d="m102.7816305,33.1792459c-.2619697-.0494957-.5442018-.0793562-.8435599-.096043-.4484098-.0250301-.9364036-.0198234-1.4619112,0v31.8254256h1.7984067c1.5756447,0,2.8529978-1.2772903,2.8529978-2.8529978v-24.3210234c.2057616-3.1608874-.6798916-4.240885-2.3459334-4.5553615Z"/><path class="cls-3" d="m134.9343928,33.0832029h-3.5969389c-1.4895761,0-2.697171,1.2075321-2.697171,2.697171v15.1964366h-.0889543l-.0048931-.0032621-.1504318-.1021908-19.5630996-13.292577v24.6326769c0,1.4896388,1.2075949,2.697171,2.697171,2.697171h3.5968135c1.4895761,0,2.697171-1.2075321,2.697171-2.697171v-15.329617h.0891425l9.3313522,16.6483733c.4771411.851276,1.3769091,1.3784147,2.3527712,1.3784147h5.3370675c1.4896388,0,2.697171-1.2075321,2.697171-2.697171v-26.4310837c0-1.4896388-1.2075321-2.697171-2.697171-2.697171Z"/><path class="cls-3" d="m153.6568182,31.7034082h4.1168007c.3515513,0,.6856002-.1533802.9146982-.4199921l.5055588-.6716109-.0094098-.0150557-3.0674164-4.9022706c-.5048688-.019447-.9022145-.0217681-1.2200786,0-.368238.0252183-.6288903.0832456-.8231719.1848718-.2006176.104951-.3311006.2568884-.4361143.4678568-.0026348.0052695-.005395.0103508-.007967.0156831-.1244607.2564492-.2151087.5989671-.3494184,1.0480041-.0362592.1211986-.0753414.249235-.1195676.3864304l-.7468896,2.3340143c-.1524392.4784585-.007026.9648213.3486656,1.2674414.2226366.1893885.5272014.3071996.8943103.3046276Z"/><path class="cls-3" d="m168.4271776,33.0832029h-6.8906931c-.6660905,0-1.2060266.5399988-1.2060266,1.2060266v18.8241143c0,2.8930209-1.6023686,4.9407254-4.7626287,4.9407254l-.1334314,7.4317584-.0000627.0015056c9.5253201,0,14.1988691-4.8960601,14.1988691-12.7300573v-18.4680463c0-.6660278-.5399361-1.2060266-1.2060266-1.2060266Z"/><path class="cls-3" d="m180.3092838,31.7922997c.3334844.0628577.8271868.0506249,1.5299129.024591l1.8570613-.024591c.2245813,0,.4157263-.1605944.460768-.3805963.193968-.9465662.6874822-1.4713838,1.420508-1.4871923.0113545-.0002509.0222699-.0015056.0337499-.0015056.8010275,0,1.201698.3114654,2.5372039.9347725.8796937.3957775,1.8477142.7038553,3.0305926.7108813.0137384.0000627.0266612.0013174.0404623.0013174,3.1108898,0,4.712192-2.4072227,4.8430514-6.0495798.0096608-.268682-.2031896-.4937652-.4719971-.4937652h-3.2845326c-.2763353,0-.5179171.1943444-.570173.4657239-.1454132.7559858-.503175,1.2258499-1.3619788,1.2258499l-10.2649328,2.1800067-.0240264.0050813c-.0309897.148738-.0602856.2881917-.0883897.4225641-.0396468.1679968-.0758432.3400085-.1068329.5180425-.1395791.6940691-.2085218,1.153206-.1495536,1.4540697.0562081.2866862.2286589.4302174.5691065.4943297Z"/><polygon class="cls-3" points="182.22845 46.8818406 182.3414934 46.9250003 182.3173415 46.8818406 182.22845 46.8818406"/><path class="cls-3" d="m201.564459,33.0832029h-8.0484159c-.2604014,0-.4714952.2110939-.4714952.4714952v17.4221123h-.0891425l-.0047049-.0017565-.1159918-.0442889-10.4932153-4.0057647,9.9449985,17.7426739c.0834338.1488008.2407035.2409544.4112723.2409544h8.8666947c.2604014,0,.4714952-.2110939.4714952-.4714952v-30.8824352c0-.2604014-.2110939-.4714952-.4714952-.4714952Z"/><path class="cls-3" d="m230.7395747,56.9411999h-15.2145662c-.1989865,0-.360271-.1612845-.360271-.360271v-4.2647232c0-.1989865.1612845-.360271.360271-.360271h12.2321519c.1989238,0,.360271-.1612845.360271-.360271v-6.2677624c0-.1989865-.1613472-.360271-.360271-.360271h-12.2321519c-.1989865,0-.360271-.1612845-.360271-.360271l-.0938474-1.7536787-.0023211-.043348-7.0480255,22.098296h22.7190312c.1990493,0,.3603338-.1612845.3603338-.360271v-7.2468866c0-.1989865-.1612845-.360271-.3603338-.360271Z"/><path class="cls-3" d="m258.8247183,56.9411999h-9.9663275c-1.9584993,0-3.7389646.178034-3.7389646.178034v-.1334314s1.7804653-1.6470339,3.2494025-3.3382941l-.0046422-.1026926-.5740624-12.6722183v.1337451s-1.4689372,1.3351922-2.5372039,2.5814928l-11.4419143,13.0481096c-.0857549.0985523-.1644211.2087728-.234493.3266466-.2126622.3577617-.3449644.7871009-.3449644,1.1835684l.043097,3.3154596.0179414,1.3829314c0,.1171838.0127346.2298508.0318052.3399458.0857549.496149.3555034.9153255.735786,1.2163146.0100999.007967.0198861.0163104.0301742.0240892.022019.0168122.0437871.0337499.0664334.0497466.3903825.2753944.8792545.4339814,1.3969834.4339814h23.2709491c1.2069048,0,2.1852762-.9783714,2.1852762-2.1852762v-3.5968762c0-1.2069048-.9783714-2.1852762-2.1852762-2.1852762Z"/><path class="cls-2" d="m99.7989019,67.6928525c.5575354,0,1.0275098.2229571,1.4017952.6530626l.8283655-.7646173c-.5256898-.6371779-1.3301093-.9875648-2.2938518-.9875648-1.7362974,0-3.0266045,1.2026604-3.0266045,2.8832233s1.2903071,2.8832138,3.018686,2.8832138c.9716611,0,1.7760806-.3504536,2.3017704-.9955881l-.8283655-.7645982c-.3742854.4380336-.8442598.6610668-1.4017952.6610668-1.043385,0-1.7840943-.7327717-1.7840943-1.7840943,0-1.0513987.7407093-1.7841038,1.7840943-1.7841038Z"/><path class="cls-2" d="m104.6975615,67.9158095c-1.362012,0-2.3576001.9159456-2.3576001,2.2062622,0,1.2903262.9955881,2.2061766,2.3576001,2.2061766,1.3619359,0,2.3495673-.9158504,2.3495673-2.2061766,0-1.2903166-.9876314-2.2062622-2.3495673-2.2062622Zm0,3.3929618c-.6213027,0-1.0991956-.4459903-1.0991956-1.1866996,0-.7407188.4778929-1.1867757,1.0991956-1.1867757.6212266,0,1.0911058.4460569,1.0911058,1.1867757,0,.7407093-.4698792,1.1866996-1.0911058,1.1866996Z"/><path class="cls-2" d="m109.0625746,68.5450498v-.5654825h-1.1866996v4.285009h1.2424341v-2.0230217c0-.8204184.454004-1.1947038,1.1389788-1.1947038.0955938,0,.1752363.0079376.2787677.0158847v-1.1469259c-.6610859,0-1.1708053.2150861-1.473481.6292403Z"/><path class="cls-2" d="m113.8098107,67.9158095c-.5734868,0-1.0354284.18325-1.3460416.5575449v-.4937872h-1.1867757v5.8301949h1.2425102v-1.9991899c.318627.3504726.7566797.5176761,1.2903071.5176761,1.2026699,0,2.1345859-.8601159,2.1345859-2.2061766,0-1.3460512-.931916-2.2062622-2.1345859-2.2062622Zm-.2150766,3.3929618c-.6212266,0-1.0911058-.4459903-1.0911058-1.1866996,0-.7407188.4698792-1.1867757,1.0911058-1.1867757.6212837,0,1.0911819.4460569,1.0911819,1.1867757,0,.7407093-.4698982,1.1866996-1.0911819,1.1866996Z"/><path class="cls-2" d="m118.8119446,67.9158095c-1.362012,0-2.3576001.9159456-2.3576001,2.2062622,0,1.2903262.9955881,2.2061766,2.3576001,2.2061766,1.3619168,0,2.3495673-.9158504,2.3495673-2.2061766,0-1.2903166-.9876505-2.2062622-2.3495673-2.2062622Zm0,3.3929618c-.6213027,0-1.0991956-.4459903-1.0991956-1.1866996,0-.7407188.4778929-1.1867757,1.0991956-1.1867757.6212266,0,1.0911058.4460569,1.0911058,1.1867757,0,.7407093-.4698792,1.1866996-1.0911058,1.1866996Z"/><path class="cls-2" d="m123.1769387,68.5450498v-.5654825h-1.1866805v4.285009h1.2424341v-2.0230217c0-.8204184.454004-1.1947038,1.1389788-1.1947038.0955938,0,.1752363.0079376.2787677.0158847v-1.1469259c-.6610859,0-1.1708053.2150861-1.4735001.6292403Z"/><path class="cls-2" d="m127.0959044,67.9158095c-.6849748,0-1.3779062.18325-1.8477854.5177618l.4459903.8681487c.3106894-.2469317.7805686-.39826,1.2345726-.39826.6690235,0,.9875743.3106038.9875743.8442502h-.9875743c-1.3062775,0-1.8398288.5257089-1.8398288,1.2823695,0,.7407093.5973186,1.2981686,1.6008443,1.2981686.6292403,0,1.0752877-.2070628,1.3062585-.5973186v.5336465h1.1628106v-2.4451802c0-1.2982447-.7566035-1.9035866-2.062862-1.9035866Zm.8203518,2.9947875c-.1433146.3902367-.5017248.5814244-.9158695.5814244-.4381098,0-.7009452-.2070819-.7009452-.5177522,0-.2867243.1831929-.5017438.7646173-.5017438h.8521974v.4380717Z"/><path class="cls-2" d="m132.3926812,68.9352961c.3903129,0,.7327717.18325.9637425.589381l.9637425-.5176856c-.3105942-.7008595-1.0194961-1.0911819-1.9194713-1.0911819-1.3938576,0-2.3894266.9159456-2.3894266,2.2062622,0,1.2903262.995569,2.2061766,2.3894266,2.2061766.8999752,0,1.608877-.3981743,1.9194713-1.0831682l-.9637425-.5256708c-.2309708.4142018-.5734296.589362-.9637425.589362-.6291642,0-1.1230275-.4380336-1.1230275-1.1866996,0-.7486564.4938633-1.1867757,1.1230275-1.1867757Z"/><path class="cls-2" d="m135.6584987,65.9963382c-.4619416,0-.7725549.3026662-.7725549.6929124,0,.3903224.3106133.6929219.7725549.6929219s.7725549-.3025995.7725549-.7168204c0-.3823086-.3106133-.6690139-.7725549-.6690139Z"/><rect class="cls-2" x="135.037196" y="67.9795673" width="1.2425293" height="4.285009"/><polygon class="cls-2" points="141.1463109 66.2830435 139.808283 66.2830435 138.7329763 67.4299695 139.7047325 67.4299695 141.1463109 66.2830435"/><path class="cls-2" d="m139.4736856,67.9158095c-1.3619168,0-2.3575239.9159456-2.3575239,2.2062622,0,1.2903262.9956071,2.2061766,2.3575239,2.2061766,1.362031,0,2.3496625-.9158504,2.3496625-2.2061766,0-1.2903166-.9876314-2.2062622-2.3496625-2.2062622Zm0,3.3929618c-.6212266,0-1.0991195-.4459903-1.0991195-1.1866996,0-.7407188.4778929-1.1867757,1.0991195-1.1867757.6213027,0,1.0912009.4460569,1.0912009,1.1867757,0,.7407093-.4698982,1.1866996-1.0912009,1.1866996Z"/><path class="cls-2" d="m145.2565213,67.9158095c-.5814434,0-1.0832443.1991347-1.4177275.5655587v-.5018009h-1.1867947v4.285009h1.2425293v-2.1186155c0-.7885062.430096-1.154854,1.0274908-1.154854.5495217,0,.8681487.3185509.8681487,1.0114823v2.2619872h1.2424341v-2.4531178c0-1.306268-.7645982-1.895649-1.7760806-1.895649Z"/><path class="cls-2" d="m154.2251704,69.7636616c0,1.0592602-.453985,1.497389-1.2424912,1.497389-.7805115,0-1.2424531-.4381288-1.2424531-1.497389v-3.0744109h-1.2903071v3.1222078c0,1.6407226.9398345,2.5487116,2.5248036,2.5487116s2.5248036-.907989,2.5248036-2.5487116v-3.1222078h-1.2743558v3.0744109Z"/><path class="cls-2" d="m159.2911858,67.9158095c-.5814244,0-1.0832253.1991347-1.4177275.5655587v-.5018009h-1.1867947v4.285009h1.2425293v-2.1186155c0-.7885062.4301151-1.154854,1.0275098-1.154854.5495026,0,.8681487.3185509.8681487,1.0114823v2.2619872h1.2424341v-2.4531178c0-1.306268-.7646173-1.895649-1.7760996-1.895649Z"/><path class="cls-2" d="m162.8119582,65.9963382c-.4619416,0-.7725549.3026662-.7725549.6929124,0,.3903224.3106133.6929219.7725549.6929219.4619606,0,.7725549-.3025995.7725549-.7168204,0-.3823086-.3105942-.6690139-.7725549-.6690139Z"/><rect class="cls-2" x="162.1907507" y="67.9795673" width="1.2424341" height="4.285009"/><polygon class="cls-2" points="166.4200823 70.8946266 165.2333827 67.9795673 163.9510132 67.9795673 165.7510588 72.2645762 167.0333712 72.2645762 168.8413544 67.9795673 167.6467173 67.9795673 166.4200823 70.8946266"/><path class="cls-2" d="m171.1992591,67.9158095c-1.3062775,0-2.2859142.9239689-2.2859142,2.2062622,0,1.2743558.9637425,2.2061766,2.4451802,2.2061766.7725549,0,1.3699496-.2388894,1.768143-.6929124l-.6610859-.7168204c-.2946429.2787867-.6212266.4141637-1.0752115.4141637-.6530721,0-1.1070761-.3264885-1.2265779-.860154h3.241643c.0080137-.1035124.0238889-.2389655.0238889-.3344832,0-1.3779824-.9716801-2.2222326-2.2300655-2.2222326Zm-1.0514178,1.8319007c.0876562-.5495312.4938633-.8920567,1.0593363-.8920567.5575545,0,.9637615.3504726,1.0513416.8920567h-2.1106779Z"/><path class="cls-2" d="m175.4447704,68.5450498v-.5654825h-1.1866996v4.285009h1.2424341v-2.0230217c0-.8204184.454004-1.1947038,1.1389788-1.1947038.0955938,0,.1752363.0079376.2787677.0158847v-1.1469259c-.6610859,0-1.1708053.2150861-1.473481.6292403Z"/><path class="cls-2" d="m178.5513029,69.2539231c0-.2230332.2389274-.3982695.7964629-.3982695.3902558,0,.8124142.0796425,1.2345726.318627l.4141447-.8841c-.4062071-.2389179-1.0593363-.374371-1.6487173-.374371-1.2504478,0-1.9832195.5734963-1.9832195,1.3859105,0,1.7123894,2.5885519.9955881,2.5885519,1.6964381,0,.2390036-.2150766.3903319-.7885062.3903319-.5256898,0-1.1071332-.1672987-1.4893753-.4142208l-.4142208.8920376c.3982505.2628925,1.1310222.4619416,1.8557992.4619416,1.2822934,0,2.0230027-.565473,2.0230027-1.3619168,0-1.68851-2.5884947-.9796367-2.5884947-1.7124085Z"/><path class="cls-2" d="m182.525927,65.9963382c-.4619416,0-.7725549.3026662-.7725549.6929124,0,.3903224.3106133.6929219.7725549.6929219s.7725549-.3025995.7725549-.7168204c0-.3823086-.3106133-.6690139-.7725549-.6690139Z"/><rect class="cls-2" x="181.9046243" y="67.9795673" width="1.2425293" height="4.285009"/><path class="cls-2" d="m186.2296449,71.340693c-.3345022,0-.5336274-.1991252-.5336274-.565473v-1.7443302h1.0672739v-.9557288h-1.0672739v-1.043385h-1.2425293v1.043385h-.6610859v.9557288h.6610859v1.7602054c0,1.019477.5894571,1.5371531,1.6009204,1.5371531.3823182,0,.7566797-.087561,1.0115585-.270754l-.3345212-.8760863c-.1354531.1035314-.318608.159285-.5018009.159285Z"/><path class="cls-2" d="m189.4954053,67.9158095c-.6849938,0-1.3779062.18325-1.8478045.5177618l.4459903.8681487c.3106133-.2469317.7805877-.39826,1.2345726-.39826.6690425,0,.9876505.3106038.9876505.8442502h-.9876505c-1.3061823,0-1.8398288.5257089-1.8398288,1.2823695,0,.7407093.5973376,1.2981686,1.6008633,1.2981686.6292213,0,1.0752877-.2070628,1.3062585-.5973186v.5336465h1.1628106v-2.4451802c0-1.2982447-.7566035-1.9035866-2.062862-1.9035866Zm.8204089,2.9947875c-.1433907.3902367-.5018009.5814244-.9159456.5814244-.4381288,0-.7009261-.2070819-.7009261-.5177522,0-.2867243.1831739-.5017438.7645982-.5017438h.8522735v.4380717Z"/><path class="cls-2" d="m195.3417799,69.0627354v-1.1469259c-.6610859,0-1.1708434.2150861-1.4735001.6292403v-.5654825h-1.1867186v4.285009h1.2424531v-2.0230217c0-.8204184.454004-1.1947038,1.1389788-1.1947038.0955938,0,.1752363.0079376.2787867.0158847Z"/><path class="cls-2" d="m196.7040013,65.9963382c-.4619416,0-.7725549.3026662-.7725549.6929124,0,.3903224.3106133.6929219.7725549.6929219s.7725549-.3025995.7725549-.7168204c0-.3823086-.3106133-.6690139-.7725549-.6690139Z"/><rect class="cls-2" x="196.0826986" y="67.9795673" width="1.2425102" height="4.285009"/><path class="cls-2" d="m201.1086453,71.7309298v.5336465h1.1627916v-2.4451802c0-1.2982447-.7565845-1.9035866-2.062862-1.9035866-.6849748,0-1.3778872.18325-1.8477664.5177618l.4459903.8681487c.3106704-.2469317.7805496-.39826,1.2345726-.39826.6690044,0,.9875743.3106038.9875743.8442502h-.9875743c-1.3062775,0-1.8398478.5257089-1.8398478,1.2823695,0,.7407093.5973186,1.2981686,1.6008443,1.2981686.6292403,0,1.0753067-.2070628,1.3062775-.5973186Zm-.9955881-.2389084c-.4381098,0-.7009452-.2070819-.7009452-.5177522,0-.2867243.1831929-.5017438.7646363-.5017438h.8521974v.4380717c-.1433336.3902367-.5017438.5814244-.9158885.5814244Z"/><path class="cls-2" d="m207.0267248,70.7114527h1.1866805l1.0752306,1.5531235h1.38592l-1.2504669-1.7920509c.724758-.3105942,1.1469164-.9239498,1.1469164-1.7601863,0-1.2504573-.9318969-2.0230884-2.4212722-2.0230884h-2.4133346v5.5753256h1.2903262v-1.5531235Zm0-2.97087h1.0513036c.7885253,0,1.1867186.3584768,1.1867186.9717562,0,.6052657-.3981934.9716801-1.1867186.9716801h-1.0513036v-1.9434364Z"/><path class="cls-2" d="m215.2545694,72.2645762v-2.4451802c0-1.2982447-.7566035-1.9035866-2.062862-1.9035866-.6849748,0-1.3779062.18325-1.8477664.5177618l.4459712.8681487c.3106894-.2469317.7805686-.39826,1.2345726-.39826.6690235,0,.9875743.3106038.9875743.8442502h-.9875743c-1.3062775,0-1.8398288.5257089-1.8398288,1.2823695,0,.7407093.5973186,1.2981686,1.6008443,1.2981686.6292403,0,1.0752877-.2070628,1.3062585-.5973186v.5336465h1.1628106Zm-1.2425102-1.3539792c-.1433146.3902367-.5017248.5814244-.9158695.5814244-.4381098,0-.7009452-.2070819-.7009452-.5177522,0-.2867243.1831929-.5017438.7646173-.5017438h.8521974v.4380717Z"/><path class="cls-2" d="m218.8389377,68.0751611h-1.0991195v-.18325c0-.4220918.1991443-.621217.5654921-.621217.1911876,0,.3663478.0557345.5018009.1513283l.3265646-.8999847c-.2309708-.1593516-.5973947-.2309803-.9478673-.2309803-1.0672168,0-1.6566549.6291642-1.6566549,1.5929162v.1911876h-.6610859v.9557288h.6610859v3.2336864h1.2425102v-3.2336864h1.0672739v-.9557288Z"/><path class="cls-2" d="m221.1090339,67.9158095c-.6849748,0-1.3778872.18325-1.8477854.5177618l.4459903.8681487c.3106894-.2469317.7805877-.39826,1.2345726-.39826.6690235,0,.9875743.3106038.9875743.8442502h-.9875743c-1.3062585,0-1.8398478.5257089-1.8398478,1.2823695,0,.7407093.5973376,1.2981686,1.6008633,1.2981686.6292403,0,1.0753067-.2070628,1.3062775-.5973186v.5336465h1.1628106v-2.4451802c0-1.2982447-.7566035-1.9035866-2.062881-1.9035866Zm.8203518,2.9947875c-.1433146.3902367-.5017248.5814244-.9158695.5814244-.4381288,0-.7009261-.2070819-.7009261-.5177522,0-.2867243.1831549-.5017438.7645982-.5017438h.8521974v.4380717Z"/><path class="cls-2" d="m226.310293,67.9158095c-1.3062775,0-2.2859142.9239689-2.2859142,2.2062622,0,1.2743558.9637425,2.2061766,2.4451802,2.2061766.7725549,0,1.3699496-.2388894,1.768143-.6929124l-.6610859-.7168204c-.2946429.2787867-.6212075.4141637-1.0752115.4141637-.6530531,0-1.1070761-.3264885-1.2265589-.860154h3.241624c.0080137-.1035124.023908-.2389655.023908-.3344832,0-1.3779824-.9716801-2.2222326-2.2300846-2.2222326Zm-1.0514178,1.8319007c.0876753-.5495312.4938823-.8920567,1.0593554-.8920567.5575354,0,.9637425.3504726,1.0513226.8920567h-2.1106779Z"/><rect class="cls-2" x="229.3690286" y="66.3547389" width="1.2425293" height="5.9098373"/><polygon class="cls-2" points="239.2216445 72.2645762 239.2216445 66.6892506 237.9472887 66.6892506 237.9472887 70.0742749 235.1755439 66.6892506 234.108251 66.6892506 234.108251 72.2645762 235.3826068 72.2645762 235.3826068 68.8795615 238.1623082 72.2645762 239.2216445 72.2645762"/><polygon class="cls-2" points="244.2876028 66.2830435 242.9494797 66.2830435 241.8742682 67.4299695 242.8459293 67.4299695 244.2876028 66.2830435"/><path class="cls-2" d="m240.4326708,67.9795673v2.4212722c0,1.3221527.7566035,1.9274089,1.8318341,1.9274089.5256898,0,1.0036018-.1990491,1.3301664-.5734106v.5097385h1.178762v-4.285009h-1.2425102v2.1186155c0,.7885062-.4141637,1.154854-.9876505,1.154854-.5495217,0-.8681487-.3185509-.8681487-1.0353712v-2.2380983h-1.2424531Z"/><path class="cls-2" d="m245.9287251,72.2645762h1.2424531v-2.1186155c0-.7885062.430096-1.154854,1.0274908-1.154854.5495217,0,.8681677.3185509.8681677,1.0114823v2.2619872h1.2424341v-2.4531178c0-1.306268-.7646173-1.895649-1.7760996-1.895649-.5814244,0-1.0832253.1991347-1.4177275.5655587v-.5018009h-1.1867186v4.285009Z"/><path class="cls-2" d="m247.6092119,66.9521336c.2867814,0,.5655682.5017343,1.1150899.5017343.5575354,0,.9159456-.454004.9318969-1.1389122h-.6292213c-.0159513.2628164-.1672987.4300389-.3823182.4300389-.2867053,0-.565473-.509748-1.1150899-.509748-.5575354,0-.9159266.454004-.9318208,1.1628773h.6291642c.0159513-.2867053.1672797-.4459903.3822991-.4459903Z"/><path class="cls-2" d="m255.3752101,71.6353359l-.6610668-.7168204c-.2946619.2787867-.6212266.4141637-1.0752306.4141637-.6530721,0-1.1070571-.3264885-1.2265589-.860154h3.241624c.0080328-.1035124.023908-.2389655.023908-.3344832,0-1.3779824-.9716991-2.2222326-2.2301036-2.2222326-1.3062585,0-2.2858762.9239689-2.2858762,2.2062622,0,1.2743558.9637425,2.2061766,2.4451611,2.2061766.7725549,0,1.3699496-.2388894,1.768143-.6929124Zm-1.9194713-2.7796824c.5575354,0,.9637425.3504726,1.0513226.8920567h-2.1106589c.0876372-.5495312.4938443-.8920567,1.0593363-.8920567Z"/><polygon class="cls-2" points="259.9234732 68.7282237 259.9234732 67.9795673 256.2278452 67.9795673 256.2278452 68.9352961 258.354465 68.9352961 256.1721107 71.5159103 256.1721107 72.2645762 259.9951686 72.2645762 259.9951686 71.3087713 257.7411856 71.3087713 259.9234732 68.7282237"/><polygon class="cls-2" points="196.5861555 77.9497243 195.4778612 75.3481525 194.5673215 75.3481525 196.1386615 78.9902921 196.9711386 78.9902921 198.5476561 75.3481525 197.7099634 75.3481525 196.5861555 77.9497243"/><rect class="cls-2" x="198.8443358" y="76.1910418" width=".8116909" height="2.7992504"/><path class="cls-2" d="m199.2501812,74.8955381c-.3017239,0-.5046942.1976786-.5046942.4526144,0,.2549549.2029703.4527096.5046942.4527096.3018001,0,.5046752-.1977547.5046752-.4682993,0-.2497393-.2028751-.4370248-.5046752-.4370248Z"/><path class="cls-2" d="m202.5282001,76.5500992c-.2133634-.2706017-.5358926-.4006489-.9261293-.4006489-.7752388,0-1.3996252.5358736-1.3996252,1.35278,0,.8168684.6243864,1.352761,1.3996252,1.352761.3641778,0,.6711935-.1144575.8844617-.3485881v.1196921c0,.5046942-.2497393.7648457-.8220078.7648457-.3590574,0-.749237-.1249077-.9885832-.3174088l-.3225863.5827378c.3277829.2549549.8428702.3850592,1.3735472.3850592,1.0093694,0,1.571321-.4786924,1.571321-1.5193364v-2.3309511h-.7700232v.3590574Zm-.7648457,1.6389143c-.4266126,0-.7388248-.2757411-.7388248-.6867831s.3122122-.6867831.7388248-.6867831c.4266507,0,.7336473.2757411.7336473.6867831s-.3069966.6867831-.7336473.6867831Z"/><path class="cls-2" d="m204.4586356,74.8955381c-.3017049,0-.5046752.1976786-.5046752.4526144,0,.2549549.2029703.4527096.5046752.4527096.3018191,0,.5046942-.1977547.5046942-.4682993,0-.2497393-.2028751-.4370248-.5046942-.4370248Z"/><rect class="cls-2" x="204.0528092" y="76.1910418" width=".8116909" height="2.7992504"/><rect class="cls-2" x="205.6190097" y="75.1296687" width=".8116909" height="3.8606234"/><path class="cls-2" d="m208.3142909,76.1494503c-.4474369,0-.9001465.1196541-1.2070861.338195l.2913498.5671481c.2029513-.1613027.5098718-.2601515.8064753-.2601515.4370438,0,.6451345.2028942.6451345.5514823h-.6451345c-.8533395,0-1.2019276.3433725-1.2019276.8376736,0,.483908.3902367.8480858,1.0458405.8480858.411042,0,.7023728-.1352247.8532633-.3901796v.3485881h.7596491v-1.5973228c0-.8480668-.4943011-1.2435191-1.3475644-1.2435191Zm.5358736,1.956304c-.0936522.2549549-.3277258.3798626-.5983465.3798626-.2861343,0-.45783-.1353199-.45783-.338214,0-.1872855.1196541-.3277829.4994977-.3277829h.5566788v.2861343Z"/><path class="cls-2" d="m212.4664355,76.4876453c-.2028751-.2289531-.4942821-.338195-.8376736-.338195-.7908856,0-1.3996252.5619515-1.3996252,1.4412167,0,.8793413.6087396,1.4412167,1.3996252,1.4412167.3745899,0,.6711935-.1196541.8740686-.3641778v.3225863h.7752959v-3.8606234h-.8116909v1.3579766Zm-.6971762,1.8782415c-.4058264,0-.7180386-.2913118-.7180386-.7752198s.3122122-.7752198.7180386-.7752198c.4005727,0,.712785.2913118.712785.7752198s-.3122122.7752198-.712785.7752198Z"/><path class="cls-2" d="m215.1565391,76.1494503c-.4474369,0-.9001465.1196541-1.2070861.338195l.2913498.5671481c.2029513-.1613027.5098718-.2601515.8064753-.2601515.4370438,0,.6451345.2028942.6451345.5514823h-.6451345c-.8533395,0-1.2019276.3433725-1.2019276.8376736,0,.483908.3902367.8480858,1.0458405.8480858.411042,0,.7023728-.1352247.8532633-.3901796v.3485881h.7596491v-1.5973228c0-.8480668-.4943011-1.2435191-1.3475644-1.2435191Zm.5358736,1.956304c-.0936522.2549549-.3277258.3798626-.5983465.3798626-.2861343,0-.45783-.1353199-.45783-.338214,0-.1872855.1196541-.3277829.4994977-.3277829h.5566788v.2861343Z"/><polygon class="cls-2" points="222.1703308 75.3481525 220.8279439 77.6114532 219.4647898 75.3481525 218.7675374 75.3481525 218.7675374 78.9902921 219.558423 78.9902921 219.558423 76.8518421 220.6250688 78.6052329 221.0048553 78.6052329 222.0766786 76.8050541 222.0818751 78.9902921 222.8727036 78.9902921 222.8622915 75.3481525 222.1703308 75.3481525"/><rect class="cls-2" x="223.6793312" y="76.1910418" width=".8116909" height="2.7992504"/><path class="cls-2" d="m224.0851766,74.8955381c-.3017239,0-.5046942.1976786-.5046942.4526144,0,.2549549.2029703.4527096.5046942.4527096.3018191,0,.5046942-.1977547.5046942-.4682993,0-.2497393-.2028751-.4370248-.5046942-.4370248Z"/><path class="cls-2" d="m226.946957,76.1494503c-.3798436,0-.7076455.1300472-.9261293.3693934v-.3278019h-.7752959v2.7992504h.8116909v-1.3840165c0-.5150873.2810138-.7544336.6711935-.7544336.3590383,0,.5671291.2081478.5671291.6607813v1.4776687h.8116909v-1.6025003c0-.8533585-.4994786-1.2383416-1.160279-1.2383416Z"/><path class="cls-2" d="m230.1573255,76.1494503c-.8532824,0-1.4932774.603524-1.4932774,1.4412167,0,.8324771.629602,1.4412167,1.5973228,1.4412167.5046752,0,.894931-.15603,1.1550634-.4526335l-.4318282-.4682993c-.192482.182165-.4058264.2706207-.7024489.2706207-.4266317,0-.723159-.2133634-.8012026-.5619515h2.1175877c.0051966-.0676504.0155897-.1561061.0155897-.21856,0-.9001275-.6347224-1.4516098-1.4568064-1.4516098Zm-.6867831,1.1966739c.0571812-.3589812.3225863-.5827378.6919797-.5827378.3641778,0,.629602.2289341.6867831.5827378h-1.3787628Z"/><path class="cls-2" d="m234.1949745,76.4876453c-.2028751-.2289531-.4943011-.338195-.8376927-.338195-.7908856,0-1.3996061.5619515-1.3996061,1.4412167,0,.8793413.6087206,1.4412167,1.3996061,1.4412167.374609,0,.6712125-.1196541.8740876-.3641778v.3225863h.7752959v-3.8606234h-.8116909v1.3579766Zm-.6971762,1.8782415c-.4058454,0-.7180386-.2913118-.7180386-.7752198s.3121932-.7752198.7180386-.7752198c.4005727,0,.712785.2913118.712785.7752198s-.3122122.7752198-.712785.7752198Z"/><path class="cls-2" d="m237.7644004,77.5750583c0,.5150873-.2706207.7544336-.6451916.7544336-.3589812,0-.5671291-.2080717-.5671291-.676371v-1.462079h-.8116909v1.5817141c0,.8637516.4942821,1.2591278,1.196731,1.2591278.3433916,0,.6555847-.1300472.868872-.3745709v.3329794h.7700232v-2.7992504h-.8116147v1.3840165Z"/><path class="cls-2" d="m240.6782415,76.8154472c.2549359,0,.4786163.119616.6295258.384964l.6295829-.338176c-.2029513-.45783-.6659779-.712785-1.2539122-.712785-.9105206,0-1.5609279.5983465-1.5609279,1.4412167s.6504072,1.4412167,1.5609279,1.4412167c.5879343,0,1.0509609-.2601324,1.2539122-.7075694l-.6295829-.3433916c-.1509096.2705255-.3745899.384964-.6295258.384964-.411042,0-.7336473-.2861343-.7336473-.7752198s.3226053-.7752198.7336473-.7752198Z"/><path class="cls-2" d="m243.5347491,76.1494503c-.4474369,0-.9001465.1196541-1.207067.338195l.2913308.5671481c.2029703-.1613027.5098908-.2601515.8064943-.2601515.4370438,0,.6451155.2028942.6451155.5514823h-.6451155c-.8533395,0-1.2019466.3433725-1.2019466.8376736,0,.483908.3902558.8480858,1.0458405.8480858.411061,0,.7023728-.1352247.8532824-.3901796v.3485881h.7596301v-1.5973228c0-.8480668-.4942821-1.2435191-1.3475644-1.2435191Zm.5358736,1.956304c-.0936332.2549549-.3277258.3798626-.5983274.3798626-.2861343,0-.45783-.1353199-.45783-.338214,0-.1872855.119635-.3277829.4994786-.3277829h.5566788v.2861343Z"/><path class="cls-2" d="m246.994857,76.8154472c.2549359,0,.4786353.119616.6295258.384964l.6295829-.338176c-.2029513-.45783-.6659588-.712785-1.2539122-.712785-.9105206,0-1.5609088.5983465-1.5609088,1.4412167s.6503882,1.4412167,1.5609088,1.4412167c.5879534,0,1.0509609-.2601324,1.2539122-.7075694l-.6295829-.3433916c-.1508905.2705255-.3745899.384964-.6295258.384964-.411042,0-.7336283-.2861343-.7336283-.7752198s.3225863-.7752198.7336283-.7752198Z"/><path class="cls-2" d="m249.1281295,74.8955381c-.301743,0-.5046942.1976786-.5046942.4526144,0,.2549549.2029513.4527096.5046942.4527096.3018001,0,.5046942-.1977547.5046942-.4682993,0-.2497393-.2028942-.4370248-.5046942-.4370248Z"/><rect class="cls-2" x="248.722265" y="76.1910418" width=".8116909" height="2.7992504"/><path class="cls-2" d="m251.6204593,76.1494503c-.8896773,0-1.5400845.5983465-1.5400845,1.4412167s.6504072,1.4412167,1.5400845,1.4412167c.8897344,0,1.534907-.5983465,1.534907-1.4412167s-.6451726-1.4412167-1.534907-1.4412167Zm0,2.2164365c-.4057883,0-.7179815-.2913118-.7179815-.7752198s.3121932-.7752198.7179815-.7752198c.4058264,0,.712823.2913118.712823.7752198s-.3069966.7752198-.712823.7752198Z"/><polygon class="cls-2" points="252.713145 75.0828236 251.8390003 75.0828236 251.1366275 75.8320605 251.7713499 75.8320605 252.713145 75.0828236"/><path class="cls-2" d="m255.398033,76.1494503c-.3798626,0-.7076455.1300472-.9261293.3693934v-.3278019h-.7752198v2.7992504h.8116147v-1.3840165c0-.5150873.2809948-.7544336.6711744-.7544336.3590574,0,.5671481.2081478.5671481.6607813v1.4776687h.8116718v-1.6025003c0-.8533585-.4994786-1.2383416-1.1602599-1.2383416Z"/></svg>